<?xml version="1.0" encoding="UTF-8"?>
<!DOCTYPE svg PUBLIC "-//W3C//DTD SVG 1.1//EN" "http://www.w3.org/Graphics/SVG/1.1/DTD/svg11.dtd">
<!-- Creator: CorelDRAW X7 -->
<svg xmlns="http://www.w3.org/2000/svg" xml:space="preserve" width="500px" height="450px" version="1.1" style="shape-rendering:geometricPrecision; text-rendering:geometricPrecision; image-rendering:optimizeQuality; fill-rule:evenodd; clip-rule:evenodd"
viewBox="0 0 461 415"
 xmlns:xlink="http://www.w3.org/1999/xlink">
 <defs>
  <style type="text/css">
   <![CDATA[
    .fil1 {fill:#2C5184}
    .fil4 {fill:#426DA3}
    .fil6 {fill:#471916}
    .fil14 {fill:#536374}
    .fil10 {fill:#565659}
    .fil8 {fill:#582624}
    .fil2 {fill:#5C83B4}
    .fil13 {fill:#666668}
    .fil0 {fill:#749DCC}
    .fil9 {fill:#B0CFED}
    .fil3 {fill:#C1CCDC}
    .fil12 {fill:#CEB4B1}
    .fil11 {fill:#D4120E}
    .fil7 {fill:#F18756}
    .fil5 {fill:#FBAB85}
   ]]>
  </style>
 </defs>
 <g id="Layer_x0020_1">
  <metadata id="CorelCorpID_0Corel-Layer"/>
  <g id="_2320058606576">
   <path class="fil0" d="M327 234l0 5 0 15c-17,12 -13,3 -24,34 -2,5 -5,14 3,16 25,-3 -10,-17 21,-41l0 128c3,2 -1,2 8,3l20 -1 -2 12 7 -13 35 1 21 0 2 1c13,1 4,0 8,-3l-1 -391 -98 0 0 234z"/>
   <path class="fil1" d="M167 251l-13 12c-14,-3 -32,-3 -47,-1 4,15 9,18 17,53 4,19 11,38 14,56l-83 -8 0 19 1 14c20,2 40,4 59,6 28,2 33,7 55,-3 5,-19 3,-34 1,-56 -1,-12 -5,-48 -3,-57l86 18 -8 75c4,0 9,0 12,0 10,1 5,-1 9,3l11 0c6,-103 29,-98 -24,-117 -13,-5 -28,-11 -41,-14 -11,1 -20,7 -34,5 -2,-10 0,-10 -6,-16l-6 11z"/>
   <path class="fil2" d="M106 218c8,0 18,5 28,8l21 7c3,1 5,2 9,2 0,2 0,9 0,9 2,8 -2,3 3,7l6 -11c6,6 4,6 6,16 14,2 23,-4 34,-5 -4,-7 -3,-6 -4,-17 27,4 22,5 49,-9 9,-5 9,-5 12,-12 -16,3 -21,8 -33,14 -13,7 -22,0 -39,0 -1,11 -2,0 -1,11l-25 -8 3 -14c10,-3 11,2 32,-6 1,-10 -1,-22 3,-28l1 -39c2,-11 -6,4 1,-4 -2,-8 -5,-17 -9,-23 -8,-11 -8,-5 -15,-21l-4 1 -6 41c1,6 2,12 2,18l-4 13c-10,-5 -11,-21 -11,-33 -8,-9 -15,-29 -14,-46 -15,5 -9,6 -30,22 -17,14 -41,65 -26,91 5,9 8,7 11,16z"/>
   <path class="fil3" d="M34 401l-34 0 0 12c7,3 411,2 460,2l1 -14 -41 -1c-5,-4 -2,2 -2,-6l-2 -1 -1 12 -19 0 -1 -12 -35 -1 -7 13 -16 0 -1 -4c-11,0 -22,1 -29,-3l0 8c-23,-1 -41,-1 -61,-1 -5,-1 -3,1 -5,-4 -16,0 -61,3 -71,-2 -22,10 -27,5 -55,3 -19,-2 -39,-4 -59,-6l-1 -14c-10,2 -6,1 -7,15 10,2 12,2 15,9 -2,1 1,0 -5,1l-21 1 -3 -7z"/>
   <path class="fil4" d="M107 262c15,-2 33,-2 47,1l13 -12c-5,-4 -1,1 -3,-7 0,0 0,-7 0,-9 -4,0 -6,-1 -9,-2l-21 -7c-10,-3 -20,-8 -28,-8 -4,14 -6,28 -5,43l6 1z"/>
   <path class="fil5" d="M183 45l-6 4c2,14 -3,27 10,33 36,5 23,-20 23,-49l-3 3c0,0 -1,2 -1,2 0,-1 -1,0 -1,1 4,-13 4,-8 3,-23 -25,2 -27,0 -25,29z"/>
   <path class="fil6" d="M154 61l10 -2c3,-10 3,-21 7,-28 10,10 -4,10 12,14 -2,-29 0,-27 25,-29 1,15 1,10 -3,23 0,-1 1,-2 1,-1 0,0 1,-2 1,-2l3 -3c0,-10 4,-19 6,-28 -9,-1 -18,-2 -27,-3 -16,-3 -14,0 -28,1l-7 58z"/>
   <path class="fil4" d="M210 182c2,4 3,8 11,12 23,12 38,-10 53,-14 -3,-11 -4,-9 -7,-17 -15,4 -24,16 -36,14 -10,-6 -13,-27 -19,-38 -7,8 1,-7 -1,4l-1 39z"/>
   <path class="fil7" d="M154 61c-3,10 -4,23 -2,34 8,4 23,5 32,1l4 -1c-7,2 -3,-6 -1,-13 -13,-6 -8,-19 -10,-33l6 -4c-16,-4 -2,-4 -12,-14 -4,7 -4,18 -7,28l-10 2z"/>
   <path class="fil8" d="M241 401c2,5 0,3 5,4 20,0 38,0 61,1l0 -8c-7,-9 -29,-8 -41,-10l1 -6c-4,-4 1,-2 -9,-3 -3,0 -8,0 -12,0l-5 22z"/>
   <path class="fil9" d="M215 212c-2,2 -2,2 -4,4 -6,7 -10,7 -20,8 1,0 2,0 2,1 0,1 2,1 2,1 0,1 2,1 3,1 17,0 26,7 39,0 12,-6 17,-11 33,-14 0,-1 -1,-2 -1,-2l-26 -6c-13,-2 -20,-2 -28,7z"/>
   <path class="fil8" d="M34 401l3 7 21 -1c6,-1 3,0 5,-1 -3,-7 -5,-7 -15,-9 1,-14 -3,-13 7,-15l0 -19c-9,-2 -14,-6 -25,-4 -1,12 1,12 3,20 0,0 1,1 1,1 1,5 -2,8 0,21z"/>
   <path class="fil10" d="M279 169c2,47 -4,68 48,70l0 -5c-15,-11 -21,-28 -15,-47 2,-9 4,-4 2,-16l-11 -1c-3,18 2,1 3,36 1,15 5,21 12,28 -36,2 -39,-38 -33,-65 0,-10 2,-14 -4,-22l-2 22z"/>
   <path class="fil11" d="M165 135c0,12 1,28 11,33l4 -13c0,-6 -1,-12 -2,-18 -3,-12 -2,-21 -6,-33 -8,5 -7,3 -6,13 0,7 -1,11 -1,18z"/>
   <path class="fil12" d="M198 227c-1,0 -3,0 -3,-1 0,0 -2,0 -2,-1 0,-1 -1,-1 -2,-1 10,-1 14,-1 20,-8 2,-2 2,-2 4,-4 -5,0 -4,0 -8,-2 -21,8 -22,3 -32,6l-3 14 25 8c-1,-11 0,0 1,-11z"/>
   <path class="fil5" d="M280 138c-12,10 -14,22 -1,31l2 -22c6,8 4,12 4,22 20,-16 10,-15 6,-33l-6 -1c-2,4 4,4 -5,3z"/>
   <path class="fil13" d="M280 138c9,1 3,1 5,-3 1,-11 6,-9 2,-21l-12 -1c1,17 4,12 5,25z"/>
   <polygon class="fil14" points="416,393 395,393 396,405 415,405 "/>
   <polygon class="fil14" points="336,401 337,405 353,405 355,393 335,394 "/>
  </g>
 </g>
</svg>
