<?xml version="1.0" encoding="UTF-8"?>
<!DOCTYPE svg PUBLIC "-//W3C//DTD SVG 1.1//EN" "http://www.w3.org/Graphics/SVG/1.1/DTD/svg11.dtd">
<!-- Creator: CorelDRAW X7 -->
<svg xmlns="http://www.w3.org/2000/svg" xml:space="preserve" width="200px" height="95px" version="1.1" style="shape-rendering:geometricPrecision; text-rendering:geometricPrecision; image-rendering:optimizeQuality; fill-rule:evenodd; clip-rule:evenodd"
viewBox="0 0 200 95"
 xmlns:xlink="http://www.w3.org/1999/xlink">
 <defs>
  <style type="text/css">
   <![CDATA[
    .fil1 {fill:#FEFEFE}
    .fil0 {fill:#34495E}
   ]]>
  </style>
 </defs>
 <g id="Layer_x0020_1">
  <metadata id="CorelCorpID_0Corel-Layer"/>
  <rect class="fil0" width="200" height="95.2381"/>
  <path class="fil1" d="M110 22c0,5 1,5 -2,5l-16 0c-3,0 -2,0 -2,-5 -2,0 -4,0 -6,0 -2,0 -3,0 -4,1 -1,1 -1,2 -1,4l0 44c0,2 0,3 1,4 2,3 5,2 9,2 4,0 7,0 11,0 4,0 7,0 11,0 3,0 7,1 9,-1 1,-2 1,-3 1,-5l0 -44c0,-2 0,-3 -1,-4 -1,-1 -2,-1 -4,-1 -2,0 -4,0 -6,0zm-18 -3l0 4c0,3 -1,2 6,2l8 0c3,0 2,0 2,-5 0,-3 0,-2 -5,-2l-10 0c-1,0 -1,0 -1,1zm-4 50c0,0 -2,-2 -3,-2 0,-1 -1,-1 -1,-1 0,1 2,3 3,4 0,1 1,2 2,1l1 -2c1,-1 2,-1 2,-2 1,-1 2,-2 2,-3 1,-1 1,-1 0,-1l-6 6zm0 -35l-2 -2c-1,0 -2,-1 -2,-1 0,1 3,5 4,5 1,1 1,-1 2,-2l2 -2c1,-1 2,-2 2,-3 1,-1 1,-2 0,-1 -1,0 -6,6 -6,6zm0 12c-1,-1 -4,-4 -4,-3 0,0 -1,0 0,0 0,1 0,1 0,1 1,0 1,1 2,1 2,4 2,4 4,1 1,-1 2,-2 2,-3 1,-1 2,-2 2,-3 1,0 1,-1 0,0 -1,0 -1,1 -1,1 -1,1 -2,1 -3,2l-2 3zm0 8c0,1 -2,2 -2,2 -2,3 -1,5 1,3 0,-1 0,-1 0,-2 1,-1 1,-1 2,-2 2,1 4,4 4,5 0,-2 -2,-5 -3,-6 1,-1 3,-2 3,-2 0,-1 -3,1 -3,1 -1,0 -3,-2 -4,-2 -2,1 0,2 1,3 1,0 1,0 1,0zm12 -21l15 0c1,0 2,0 2,-1 0,-1 -2,-1 -4,-1l-14 0c-1,0 -2,0 -2,1 0,1 2,1 3,1zm-2 23l17 0c1,0 2,0 2,-1 0,-1 -2,-1 -3,-1l-15 0c0,0 -1,0 -2,1 0,1 1,1 1,1zm0 10c-1,1 -1,2 0,2 0,0 7,0 8,0 1,0 10,0 10,0 1,0 1,-1 0,-2 0,0 -7,0 -8,0 -1,0 -10,0 -10,0zm0 -23c-1,0 -1,1 0,1 0,1 7,1 8,1 1,0 10,0 10,0 1,-1 1,-2 0,-2 0,0 -2,0 -2,0 -3,0 -16,0 -16,0z"/>
 </g>
</svg>
