<?xml version="1.0" encoding="UTF-8"?>
<!DOCTYPE svg PUBLIC "-//W3C//DTD SVG 1.1//EN" "http://www.w3.org/Graphics/SVG/1.1/DTD/svg11.dtd">
<!-- Creator: CorelDRAW X7 -->
<svg xmlns="http://www.w3.org/2000/svg" xml:space="preserve" width="200px" height="95px" version="1.1" style="shape-rendering:geometricPrecision; text-rendering:geometricPrecision; image-rendering:optimizeQuality; fill-rule:evenodd; clip-rule:evenodd"
viewBox="0 0 200 95"
 xmlns:xlink="http://www.w3.org/1999/xlink">
 <defs>
  <style type="text/css">
   <![CDATA[
    .fil0 {fill:#9B59B6}
    .fil1 {fill:white}
   ]]>
  </style>
 </defs>
 <g id="Layer_x0020_1">
  <metadata id="CorelCorpID_0Corel-Layer"/>
  <rect class="fil0" width="200" height="95.2381"/>
  <path class="fil1" d="M81 56c-1,2 0,2 1,3 0,0 0,0 0,0 0,3 -1,7 -2,11 -2,8 -2,7 8,7 1,-4 1,-6 4,-8 6,-6 19,-5 21,8 2,0 6,0 7,0 1,-3 -2,-14 -2,-18 0,0 0,0 0,0 0,0 2,-1 1,-2 -1,-1 -10,-1 -12,-1l-26 0zm-1 -18c1,1 1,-1 2,2 1,-1 0,-1 1,-1 1,-1 0,-1 1,-1 -1,-1 0,0 -1,-2 -1,0 0,0 -1,0 -1,0 0,0 -1,1 0,0 0,0 -1,1zm34 -7c1,2 1,1 1,1 1,1 0,1 1,2 1,-1 1,-1 1,-2l1 0c-1,-1 0,-1 -1,-1 -1,-1 0,-1 -1,-1 -1,1 0,0 -2,1zm-15 8c0,2 1,1 0,3 0,1 0,1 0,2 0,0 1,0 2,0 0,0 0,-1 0,-2 -1,-3 0,-1 0,-3l-1 -1 -1 1zm20 -14c1,0 1,0 2,1 0,0 0,1 1,2 1,-1 0,-1 1,-2 1,-1 1,0 2,-1 -1,-2 -1,-1 -2,-1 -1,-1 0,-2 -1,-2 -1,0 -1,1 -1,2 -1,0 -2,0 -2,1zm4 17c0,2 1,0 2,2 0,1 0,1 0,1 1,0 1,0 1,-2 2,0 2,0 2,-1 0,0 0,0 -2,-1 0,-1 0,-1 -1,-2 0,1 0,2 -1,2 -1,1 -1,0 -1,1zm-51 1c0,1 0,0 1,1 1,1 0,1 1,2 2,-1 1,-1 2,-2 1,-1 1,0 1,-1 0,-1 -1,-1 -1,-1 -1,-1 0,-2 -2,-2l0 0c0,0 0,0 0,1 -2,2 0,0 -2,2zm3 -18c1,1 1,0 2,1 0,1 0,1 1,2 1,-1 0,-1 1,-2 1,-1 1,0 2,-1 -1,-1 -1,-1 -2,-1 -1,-1 0,-2 -1,-2 -1,1 -1,1 -1,2 -1,1 -1,-1 -2,1zm10 30c2,-2 2,-1 5,-1l0 -4c-2,2 -3,2 -1,-1l-1 -1c0,0 0,-1 1,-1 1,0 1,0 1,1 1,-2 0,-1 2,-3 0,-1 1,-1 2,-1 1,0 1,0 1,1 0,1 0,2 -1,2 -1,1 -1,1 -3,2l1 1 -2 1 0 3c1,0 2,0 3,0 2,0 0,1 2,1 3,0 -2,-1 5,-1 0,-5 -1,-2 -2,-4 -1,-2 1,-3 -1,-8 0,-1 -1,-3 -1,-4 -4,1 -7,2 -9,5 -1,2 -2,11 -2,12zm15 -4l0 3c1,0 2,0 3,0 2,0 0,1 2,1 2,0 0,-1 2,-1 1,0 1,0 3,0 0,-6 -1,-4 -2,-6l1 -1c0,1 3,3 3,4 -1,0 -1,0 -2,-1l0 4c5,0 3,1 5,1 0,-2 -1,-10 -2,-12 -2,-3 -5,-3 -9,-5 0,1 -2,6 -2,6 -1,4 2,6 -2,7zm8 -4c1,-4 -3,-3 -3,-2 0,1 0,2 1,2 1,1 2,0 2,0zm-10 -28c-4,1 -5,4 -4,10 2,11 13,8 12,-4 0,-4 -3,-8 -8,-6z"/>
 </g>
</svg>
