<?xml version="1.0" encoding="UTF-8"?>
<!DOCTYPE svg PUBLIC "-//W3C//DTD SVG 1.1//EN" "http://www.w3.org/Graphics/SVG/1.1/DTD/svg11.dtd">
<!-- Creator: CorelDRAW X7 -->
<svg xmlns="http://www.w3.org/2000/svg" xml:space="preserve" width="705556px" height="335139px" version="1.1" style="shape-rendering:geometricPrecision; text-rendering:geometricPrecision; image-rendering:optimizeQuality; fill-rule:evenodd; clip-rule:evenodd"
viewBox="0 0 705556 335979"
 xmlns:xlink="http://www.w3.org/1999/xlink">
 <defs>
  <style type="text/css">
   <![CDATA[
    .fil0 {fill:#e67e22}
    .fil1 {fill:white}
   ]]>
  </style>
 </defs>
 <g id="Layer_x0020_1">
  <metadata id="CorelCorpID_0Corel-Layer"/>
  <rect class="fil0" width="705556" height="335979"/>
  <path class="fil1" d="M327846 190377l-23877 5269c-1986,410 -3919,839 -5977,1257 -7364,1496 -4560,-756 -11104,10733l-21017 37065 8470 5576c23297,13635 50609,20975 78297,20926 29046,-52 58223,-8631 82510,-23566 1552,-954 3182,-2231 4537,-2741 -544,-1946 -3981,-7493 -5114,-9369 -1821,-3014 -3454,-5726 -5227,-8907l-15762 -27013c-1415,-2499 -5898,-2565 -10923,-3581l-22624 -4800c-742,-335 -463,-172 -920,-558 4128,-3443 7984,-7662 11394,-13346 4069,-6782 3714,-8306 5788,-13027 1016,-2314 254,-467 3740,-2695 13664,-8730 10377,-27931 1268,-33088 224,-15375 -729,-9850 3300,-13681 2488,-2366 7364,-6665 7137,-10544 -4326,-1078 -7222,1336 -13263,-5956 -2814,-3396 -5247,-8003 -8054,-11642 -13848,-17950 -39162,-30548 -58995,-14639 -5287,4241 294,1120 -6929,2900 -10433,2571 -16150,10460 -18674,20286 -1766,6876 -1006,11285 -1611,18112 -295,3335 -575,5959 -486,9424 176,6793 1185,5112 -1409,7442 -7023,6311 -8523,18539 -1139,27748 2457,3064 5112,4480 8696,5866 2070,801 1459,529 2238,2896 2763,8391 7271,15153 13179,21041 959,957 1405,1411 2551,2612zm42916 -48445c-7483,1798 -4587,12060 2352,10380 2538,-615 4576,-3522 3713,-6655 -638,-2317 -3209,-4411 -6065,-3725zm-39091 385c-6607,3033 -1859,12786 4708,9549 5621,-2770 2139,-12691 -4708,-9549zm36276 25844c-5610,-3439 2233,4638 -15311,4101 -10698,-328 -9437,-4004 -10945,-4882 -1912,-1114 -3113,434 -2683,2294 1955,8458 31035,9460 28939,-1513zm10763 73006l-4061 -39 970 1123c1770,1738 1911,1600 3540,1693 4617,263 2006,85 4714,1955 4485,-4483 4084,452 8454,-3913 78,-78 173,-183 243,-257l-3631 -545c2808,-3754 6160,840 10817,-4639 -13989,-396 -8806,603 -13401,2182 -1040,-1034 -1229,-1268 -2482,-2058 -1570,692 -1546,1279 -2995,2054 -2464,-1187 -1113,-2255 -4707,-2254l-8326 3 2190 1987c4136,2903 6970,-1009 8675,2708zm-53486 -40694l6273 14048 11617 -8028c493,-455 319,-262 670,-713 -1048,-1839 -4407,-7098 -5695,-8032l-12865 2725zm34310 5846l12769 7959 6480 -14014c-10812,-1965 -12070,-4535 -16179,1373 -1118,1608 -2407,2995 -3070,4682zm-25928 12161c772,3800 8882,18521 10465,23336 1321,-2489 2077,-12664 2589,-16361 385,-2774 738,-5493 1139,-8214 696,-4720 1239,-4290 -1263,-7456 -3721,1974 -9467,7395 -12930,8695zm25877 23379l10700 -23203c-1095,-1120 -12277,-8203 -13567,-8520 -2015,3212 -1575,2801 -933,7143 397,2689 2746,22879 3800,24580zm47923 9547c3844,-1014 17392,-7651 19994,-9604l-18336 -31699c-1265,-2152 -1447,-3707 -3856,-4262 -2284,-527 -4834,-1086 -7184,-1424 548,4331 8757,46092 9382,46989zm-129425 -9154c2576,898 13242,7519 21619,10153l8249 -48152c-2345,374 -4617,943 -6732,1332 -3699,680 -3035,774 -4717,3863 -2777,5099 -17556,29909 -18419,32804zm42137 -110615c99,3142 1606,17281 -1283,18480 -4094,588 -3787,-2877 -4444,-6260 -547,-2816 -679,-7010 -1975,-9237 -10892,3351 -9363,22244 5889,21175 3233,13322 9964,25259 20992,31658 14123,8194 28800,2955 38220,-7721 9348,-10595 11632,-24644 12176,-23689l1332 -435c9135,-2457 11104,-10832 7686,-16866 -1326,-2340 -2969,-3232 -5237,-4642 -908,2230 -1571,7639 -2052,10336 -286,1608 -529,4152 -1380,5052 -1458,1544 -3673,801 -4295,-811 -659,-1710 116,-22033 144,-25643 -16591,1956 -24167,1309 -39997,-2920 -2454,-656 -9568,-3566 -10989,-3531 -1592,12196 -3908,15182 -14787,15054z"/>
 </g>
</svg>
