<?xml version="1.0" encoding="UTF-8"?>
<!DOCTYPE svg PUBLIC "-//W3C//DTD SVG 1.1//EN" "http://www.w3.org/Graphics/SVG/1.1/DTD/svg11.dtd">
<!-- Creator: CorelDRAW X7 -->
<svg xmlns="http://www.w3.org/2000/svg" xml:space="preserve" width="200px" height="95px" version="1.1" style="shape-rendering:geometricPrecision; text-rendering:geometricPrecision; image-rendering:optimizeQuality; fill-rule:evenodd; clip-rule:evenodd"
viewBox="0 0 200 95"
 xmlns:xlink="http://www.w3.org/1999/xlink">
 <defs>
  <style type="text/css">
   <![CDATA[
    .fil1 {fill:#FEFEFE}
    .fil0 {fill:#3498DB}
   ]]>
  </style>
 </defs>
 <g id="Layer_x0020_1">
  <metadata id="CorelCorpID_0Corel-Layer"/>
  <rect class="fil0" width="200" height="95.2381"/>
  <path class="fil1" d="M90 40l0 12c0,3 2,4 4,5l0 17c0,1 0,1 0,2 0,1 1,1 2,1l9 0c2,0 1,-3 1,-4l0 -16c2,-1 4,-2 4,-5l0 -12c0,-6 -5,-6 -12,-6 -3,0 -5,1 -6,1 -2,1 -2,3 -2,5zm-14 -16l0 2c0,3 3,6 7,6l1 0c3,0 6,-3 6,-6 0,-2 0,-4 -2,-6 -3,-3 -9,-2 -11,2 0,1 -1,1 -1,2zm23 8c3,0 4,0 6,-2 4,-4 1,-12 -5,-12 -2,0 -3,1 -5,2 -5,5 -1,12 4,12zm17 0c3,0 4,0 6,-2 4,-4 0,-12 -5,-12l-1 0c-3,0 -6,4 -6,7 0,4 3,7 6,7zm-43 9l0 5c0,1 0,1 0,2l0 2c0,2 -1,3 1,5 0,0 2,2 3,2 0,1 -1,18 0,19 0,0 1,1 2,1l9 0c0,0 1,0 1,-1 1,-1 1,-3 1,-5l-1 -14c0,-1 0,-1 0,-1 -1,-1 -2,-2 -2,-4l0 -13c0,-2 1,-3 2,-4 -1,0 -1,-1 -3,-1 -3,0 -9,0 -12,2 -2,1 -1,4 -1,5zm38 -6c1,0 2,1 2,4l0 13c0,4 -3,4 -3,5l0 18c0,1 1,2 2,2l10 0c1,0 1,-3 1,-4l0 -16c1,0 3,-2 4,-3 1,-1 0,-4 0,-6 0,0 0,-1 0,-1l0 -3c0,-1 0,-1 0,-2 0,0 0,-1 0,-2 0,-4 -1,-6 -8,-6l-5 0c-2,0 -2,1 -3,1z"/>
 </g>
</svg>
