<?xml version="1.0" encoding="UTF-8"?>
<!DOCTYPE svg PUBLIC "-//W3C//DTD SVG 1.1//EN" "http://www.w3.org/Graphics/SVG/1.1/DTD/svg11.dtd">
<!-- Creator: CorelDRAW X7 -->
<svg xmlns="http://www.w3.org/2000/svg" xml:space="preserve" width="200px" height="95px" version="1.1" style="shape-rendering:geometricPrecision; text-rendering:geometricPrecision; image-rendering:optimizeQuality; fill-rule:evenodd; clip-rule:evenodd"
viewBox="0 0 200 95"
 xmlns:xlink="http://www.w3.org/1999/xlink">
 <defs>
  <style type="text/css">
   <![CDATA[
    .fil1 {fill:#FEFEFE}
    .fil0 {fill:#e74c3c}
   ]]>
  </style>
 </defs>
 <g id="Layer_x0020_1">
  <metadata id="CorelCorpID_0Corel-Layer"/>
  <rect class="fil0" width="200" height="95.2381"/>
  <path class="fil1" d="M130 34l0 -1c0,-1 -1,-3 -1,-3 -1,-5 -4,-8 -8,-11 0,0 -1,-1 -2,-1l-1 0c-1,1 -2,1 -3,2 -3,2 -5,3 -9,4 -3,1 -11,3 -13,5 -2,1 -3,2 -3,5 -1,1 -1,2 -1,4 -1,1 -1,2 1,2 1,0 8,0 9,0 0,0 0,-1 1,-1 0,0 1,-1 1,-1 2,0 1,0 2,0 1,1 1,1 2,1 -1,2 -5,4 -7,5 -2,1 -4,2 -6,3 -1,2 -3,4 -2,6 0,2 1,3 3,3 3,1 7,-1 9,-2 8,-6 9,-2 15,-6 4,-2 5,-5 6,-8 2,-2 3,-3 5,-4 1,-1 1,0 2,-2zm-47 24c-1,0 -3,0 -4,0 -1,0 -1,0 -2,1l-6 8c0,1 -1,1 -1,3 0,7 0,7 3,7l42 0c3,0 2,0 2,-7 0,-2 0,-2 -1,-3l-6 -8c-1,-2 -1,-1 -5,-1 0,-1 0,-2 0,-2 -2,-1 -3,1 -5,1 -9,4 -15,-2 -12,-8 1,-2 2,-3 3,-4 0,0 1,0 1,-1 0,-1 -2,-1 -3,-1 -1,0 -2,0 -4,0 -2,2 -2,3 -2,6 0,3 0,6 0,9zm22 5c0,2 0,2 -4,2 -3,0 -5,0 -7,0 -1,0 -10,0 -10,0 -1,0 -1,-1 -1,-2 -3,-1 -4,5 0,4 4,0 7,0 11,0 3,0 7,0 10,0 1,0 2,0 2,0 1,0 1,-1 1,-2 1,-1 -1,-2 -2,-2z"/>
 </g>
</svg>
