<?xml version="1.0" encoding="UTF-8"?>
<!DOCTYPE svg PUBLIC "-//W3C//DTD SVG 1.1//EN" "http://www.w3.org/Graphics/SVG/1.1/DTD/svg11.dtd">
<!-- Creator: CorelDRAW X7 -->
<svg xmlns="http://www.w3.org/2000/svg" xml:space="preserve" width="200px" height="95px" version="1.1" style="shape-rendering:geometricPrecision; text-rendering:geometricPrecision; image-rendering:optimizeQuality; fill-rule:evenodd; clip-rule:evenodd"
viewBox="0 0 200 95"
 xmlns:xlink="http://www.w3.org/1999/xlink">
 <defs>
  <style type="text/css">
   <![CDATA[
    .fil0 {fill:#1ABC9C}
    .fil1 {fill:white}
   ]]>
  </style>
 </defs>
 <g id="Layer_x0020_1">
  <metadata id="CorelCorpID_0Corel-Layer"/>
  <rect class="fil0" width="200" height="95.2381"/>
  <path class="fil1" d="M86 19c-4,2 -11,14 -13,18 -7,11 -7,9 0,21 2,3 9,17 12,18 3,2 28,2 30,1 3,-2 10,-15 12,-19 8,-14 7,-10 -5,-30 -2,-3 -4,-8 -7,-9 -3,-1 -27,-1 -29,0zm11 18c-14,4 -8,25 6,21 13,-3 9,-24 -6,-21zm-17 1l1 0c1,0 6,-9 6,-11 -1,0 -1,1 -2,2 -1,1 -1,2 -2,3 -1,2 -3,5 -3,6zm19 -3c-18,3 -14,27 2,25 17,-1 14,-27 -2,-25z"/>
 </g>
</svg>
