<?xml version="1.0" encoding="UTF-8"?>
<!DOCTYPE svg PUBLIC "-//W3C//DTD SVG 1.1//EN" "http://www.w3.org/Graphics/SVG/1.1/DTD/svg11.dtd">
<!-- Creator: CorelDRAW X7 -->
<svg xmlns="http://www.w3.org/2000/svg" xml:space="preserve" width="50px" height="50px" version="1.1" style="shape-rendering:geometricPrecision; text-rendering:geometricPrecision; image-rendering:optimizeQuality; fill-rule:evenodd; clip-rule:evenodd"
viewBox="0 0 14 14"
 xmlns:xlink="http://www.w3.org/1999/xlink">
 <defs>
  <style type="text/css">
   <![CDATA[
    .fil0 {fill:#221E1E}
   ]]>
  </style>
 </defs>
 <g id="Layer_x0020_1">
  <metadata id="CorelCorpID_0Corel-Layer"/>
  <path class="fil0" d="M2 0c-1,0 -1,0 -1,0 0,0 -1,1 -1,1 0,0 0,1 0,1l0 10c0,0 0,1 1,2 0,0 0,0 0,0 0,0 1,0 1,0l10 0c0,0 0,0 0,0 1,0 2,-1 2,-1 0,0 0,-1 0,-1l0 -10c0,0 0,-1 -1,-2 0,0 -1,0 -1,0l-10 0c0,0 0,0 0,0zm5 2c-1,0 -2,0 -2,0 0,1 0,1 -1,1l0 0c-1,2 0,4 1,6 0,0 0,1 1,1 0,0 1,0 2,0 0,0 1,0 1,-1l0 0c1,-1 1,-1 1,-2 1,-1 1,-2 0,-3 0,-1 0,-1 -1,-2 -1,0 -1,0 -2,0zm-6 10c0,0 0,0 0,0 0,-1 0,-1 1,-1l0 0c0,0 0,0 0,0 1,-1 2,-1 2,-1 0,0 1,0 1,1l1 0c0,0 0,0 0,0l0 1c0,0 1,0 1,0 0,0 1,0 1,0l0 -1c0,0 0,0 0,0 0,0 0,0 0,0 0,0 0,0 1,0 0,0 0,0 0,0 0,0 0,0 0,-1 0,0 1,0 1,0 0,0 0,0 1,0 1,0 1,1 2,2 0,0 0,0 0,0 0,-1 0,-1 0,-2l0 -8c0,0 0,0 0,-1 0,0 -1,0 -2,0 -3,0 -6,0 -8,0 -1,0 -2,0 -2,0 0,1 0,2 0,3l0 7c0,0 0,1 0,1z"/>
 </g>
</svg>
