<?xml version="1.0" encoding="UTF-8"?>
<!DOCTYPE svg PUBLIC "-//W3C//DTD SVG 1.1//EN" "http://www.w3.org/Graphics/SVG/1.1/DTD/svg11.dtd">
<!-- Creator: CorelDRAW X7 -->
<svg xmlns="http://www.w3.org/2000/svg" xml:space="preserve" width="200px" height="95px" version="1.1" style="shape-rendering:geometricPrecision; text-rendering:geometricPrecision; image-rendering:optimizeQuality; fill-rule:evenodd; clip-rule:evenodd"
viewBox="0 0 200 95"
 xmlns:xlink="http://www.w3.org/1999/xlink">
 <defs>
  <style type="text/css">
   <![CDATA[
    .fil0 {fill:#f1c40f}
    .fil1 {fill:white}
   ]]>
  </style>
 </defs>
 <g id="Layer_x0020_1">
  <metadata id="CorelCorpID_0Corel-Layer"/>
  <rect class="fil0" width="200" height="95.2381"/>
  <path class="fil1" d="M55 15l0 56c0,1 1,2 3,2l55 0c0,-1 0,-2 0,-5l-53 0 0 -50 71 0 0 32c1,0 1,0 3,0l2 1 0 -36c0,-1 -1,-2 -3,-2l-76 0c-1,0 -2,1 -2,2zm53 37c0,0 -6,0 -7,0l0 3 7 0c0,0 0,0 0,-1l0 -2zm14 -13c0,-1 0,0 0,-1 0,0 -1,0 -1,0l-20 0 0 3 21 0c0,0 0,0 0,0l0 -2zm-21 9l21 0 0 -3 -21 0 0 3zm0 -14l21 0 0 -2 -21 0 0 2zm-17 9c0,0 0,0 1,0 2,-1 3,-2 5,-3l1 -1c0,-1 0,-1 0,-2 2,-3 1,-7 -2,-10 -2,-2 -6,-3 -10,-2 -3,2 -5,5 -5,8 0,3 0,5 2,7 1,1 2,2 4,3l1 0c1,0 1,0 1,0 -1,0 -3,0 -4,1 -2,0 -4,1 -6,2 -1,1 -2,2 -3,3l-1 1c0,0 0,1 0,1 -1,0 -1,1 -1,2 0,3 0,6 0,8l32 0c0,-2 0,-5 0,-8 0,-1 0,-1 -1,-1 -2,-4 -6,-7 -10,-8 -1,-1 -3,-1 -4,-1zm31 24c0,4 2,8 4,10 1,2 2,3 4,4 2,0 4,1 6,1l2 0c2,0 3,-1 5,-1 2,-1 3,-2 4,-3l2 -2 1 -2c1,-2 2,-4 2,-6l0 -2c0,-3 -1,-5 -3,-8 -2,-2 -4,-3 -6,-4 -3,-2 -7,-2 -10,-1 -4,1 -7,3 -9,7 -1,1 -1,2 -2,4 0,0 0,2 0,3zm10 -1l3 3 8 -9 3 2 -10 10 -1 1 -2 -1 -4 -4 3 -2z"/>
 </g>
</svg>
