<?xml version="1.0" encoding="UTF-8"?>
<!DOCTYPE svg PUBLIC "-//W3C//DTD SVG 1.1//EN" "http://www.w3.org/Graphics/SVG/1.1/DTD/svg11.dtd">
<!-- Creator: CorelDRAW X7 -->
<svg xmlns="http://www.w3.org/2000/svg" xml:space="preserve" width="300px" height="212px" version="1.1" style="shape-rendering:geometricPrecision; text-rendering:geometricPrecision; image-rendering:optimizeQuality; fill-rule:evenodd; clip-rule:evenodd"
viewBox="0 0 300 212"
 xmlns:xlink="http://www.w3.org/1999/xlink">
 <defs>
  <style type="text/css">
   <![CDATA[
    .fil0 {fill:#2ECC71}
    .fil1 {fill:white}
   ]]>
  </style>
 </defs>
 <g id="Layer_x0020_1">
  <metadata id="CorelCorpID_0Corel-Layer"/>
  <rect class="fil0" y="22" width="300" height="167"/>
  <path class="fil1" d="M83 58l0 83c0,2 2,3 4,3l83 0c0,-1 -1,-3 -1,-7l-79 0 0 -76 106 0 0 49c2,0 3,0 5,0l2 0 0 -52c0,-2 -1,-3 -3,-3l-114 0c-1,0 -3,1 -3,3zm79 55c-1,0 -9,0 -10,0l0 3 9 0c1,0 1,0 1,0l0 -3zm21 -21c-1,0 0,0 -1,0 0,0 0,0 0,0l-30 0 0 4 30 0c1,0 0,0 1,0l0 -4zm-31 14l31 0 0 -3 -31 0 0 3zm0 -20l31 0 0 -4 -31 0 0 4zm-26 13c0,0 0,0 1,0 3,-1 6,-2 8,-4l1 -2c0,-1 1,-2 1,-3 2,-5 1,-11 -3,-14 -4,-4 -10,-5 -15,-3 -5,2 -8,7 -9,11 0,5 1,7 4,11 1,1 4,3 6,4l2 0c1,0 0,0 1,0 -1,0 -5,1 -6,1 -3,1 -6,2 -8,4 -3,2 -3,2 -5,4l-2 2c0,0 0,1 0,1 -1,1 -2,2 -2,3 0,4 0,9 0,13l48 0c0,-4 0,-9 0,-13 0,-1 0,-1 0,-2 -4,-6 -10,-10 -17,-12 -1,0 -4,-1 -5,-1zm46 36c0,7 3,12 7,16 2,2 3,3 6,4 2,2 5,2 9,3l2 0c3,-1 6,-1 8,-2 3,-2 5,-3 6,-5l3 -3 2 -3c1,-3 2,-5 2,-8l0 -3c0,-4 -2,-8 -4,-12 -2,-3 -5,-5 -9,-7 -4,-2 -10,-3 -15,-1 -6,1 -11,5 -14,10 -1,2 -1,4 -2,6 0,1 -1,3 -1,5zm15 -2l4 5 13 -13 4 3 -15 15 -2 2 -2 -2 -6 -6 4 -4z"/>
 </g>
</svg>
